<?xml version="1.0" standalone="no"?><!DOCTYPE svg PUBLIC "-//W3C//DTD SVG 1.1//EN" "http://www.w3.org/Graphics/SVG/1.1/DTD/svg11.dtd"><svg t="1635303251470" class="icon" viewBox="0 0 1024 1024" version="1.1" xmlns="http://www.w3.org/2000/svg" p-id="7277" xmlns:xlink="http://www.w3.org/1999/xlink" width="200" height="200"><defs><style type="text/css"></style></defs><path d="M410.426 318.398c0 56.937-46.444 103.38-103.38 103.38s-103.381-46.443-103.381-103.38 46.444-103.38 103.38-103.38 103.38 46.443 103.38 103.38z m-68.978 0c0-19.093-15.481-34.403-34.403-34.403s-34.403 15.482-34.403 34.403c0 18.922 15.482 34.403 34.403 34.403 18.922 0.172 34.403-15.31 34.403-34.403z" fill="" p-id="7278"></path><path d="M616.155 183.711l312.377 317.194c19.954 19.438 31.479 47.304 31.479 76.718 0 29.243-11.353 56.937-31.135 76.031l-283.307 275.91c-39.219 38.015-113.873 38.187-153.265-0.172L140.191 585.02c-60.72-59.001-76.202-82.567-76.202-162.553V270.922c0-142.943 29.071-206.761 201.257-206.761h142.083c87.384-0.172 138.3 50.056 208.826 119.55z m-18.578 696.313l283.307-275.738c6.537-6.365 10.149-15.998 10.149-26.663 0-10.837-3.784-20.813-11.181-27.866L596.373 260.945l-28.726-28.038c-70.182-69.322-103.725-99.94-160.49-99.94H265.074c-123.334 0-132.279 19.093-132.279 137.783v151.545c0 54.528 1.548 61.065 55.388 113.185l352.113 344.544c6.881 6.709 17.202 10.493 28.555 10.493 11.353 0 21.845-3.784 28.726-10.493z" fill="" p-id="7279"></path></svg>