<?xml version="1.0" standalone="no"?><!DOCTYPE svg PUBLIC "-//W3C//DTD SVG 1.1//EN" "http://www.w3.org/Graphics/SVG/1.1/DTD/svg11.dtd"><svg t="1635303428208" class="icon" viewBox="0 0 1024 1024" version="1.1" xmlns="http://www.w3.org/2000/svg" p-id="7451" xmlns:xlink="http://www.w3.org/1999/xlink" width="200" height="200"><defs><style type="text/css"></style></defs><path d="M871.04 591.36a36.48 36.48 0 0 0 72.32 0V302.72a88.96 88.96 0 0 0-43.52-76.16L538.24 17.92A88.96 88.96 0 0 0 448 17.92L89.6 226.56a88.96 88.96 0 0 0-44.16 76.16v417.28a88.32 88.32 0 0 0 44.16 75.52l361.6 208.64a85.12 85.12 0 0 0 43.52 11.52 35.84 35.84 0 0 0 35.84-35.84V550.4l340.48-196.48z m-384-512a16 16 0 0 1 15.36 0l128 74.24-350.72 204.16-136.32-78.72z m-28.8 845.44l-332.8-192a15.36 15.36 0 0 1-7.68-12.8V347.52L458.24 544z m41.6-440.32L352 399.36 704 196.48l147.84 85.76z" p-id="7452"></path><path d="M942.08 801.92h-106.88v-106.88a36.48 36.48 0 0 0-72.32 0v106.88h-106.88a36.48 36.48 0 0 0-35.84 36.48 35.84 35.84 0 0 0 35.84 35.84h106.88v106.88a36.48 36.48 0 1 0 72.32 0v-106.88h106.88a36.48 36.48 0 0 0 36.48-35.84 37.12 37.12 0 0 0-36.48-36.48z" p-id="7453"></path></svg>