<?xml version="1.0" standalone="no"?><!DOCTYPE svg PUBLIC "-//W3C//DTD SVG 1.1//EN" "http://www.w3.org/Graphics/SVG/1.1/DTD/svg11.dtd"><svg t="1635304165872" class="icon" viewBox="0 0 1024 1024" version="1.1" xmlns="http://www.w3.org/2000/svg" p-id="8504" xmlns:xlink="http://www.w3.org/1999/xlink" width="200" height="200"><defs><style type="text/css"></style></defs><path d="M372.150857 755.858286a36.571429 36.571429 0 0 0 35.766857 28.598857h8.045715l568.100571-144.018286a36.571429 36.571429 0 0 0 23.259429-16.969143 40.155429 40.155429 0 0 0 4.461714-28.598857L867.766857 28.818286a36.571429 36.571429 0 0 0-16.969143-23.259429 40.155429 40.155429 0 0 0-28.598857-4.461714L255.926857 144.237714a37.814857 37.814857 0 0 0-26.843428 45.641143z m-61.732571-547.474286l492.909714-125.220571 125.220571 492.909714-493.056 125.220571z" p-id="8505"></path><path d="M612.717714 447.561143a20.992 20.992 0 0 0 9.874286-1.755429l183.369143-45.641143a37.449143 37.449143 0 0 0-18.797714-72.484571l-183.149715 45.494857a40.96 40.96 0 0 0-23.259428 16.969143 40.155429 40.155429 0 0 0-4.461715 28.598857 38.107429 38.107429 0 0 0 36.425143 28.818286z" p-id="8506"></path><path d="M494.665143 604.818286a20.992 20.992 0 0 0 9.874286-1.755429l332.8-84.992a37.449143 37.449143 0 0 0-18.797715-72.484571L485.961143 530.578286a40.96 40.96 0 0 0-23.259429 16.969143 40.155429 40.155429 0 0 0-4.461714 28.598857 37.376 37.376 0 0 0 36.425143 28.672z" p-id="8507"></path><path d="M1022.464 686.006857a38.034286 38.034286 0 0 0-45.787429-26.258286l-579.949714 144.457143a136.484571 136.484571 0 0 0-48.493714-22.747428l-150.820572-548.571429a34.230857 34.230857 0 0 0-17.042285-21.942857L56.466286 140.946286a36.571429 36.571429 0 0 0-28.745143-3.510857 34.669714 34.669714 0 0 0-22.454857 18.139428 35.693714 35.693714 0 0 0 13.458285 49.956572l110.445715 63.049142 143.652571 519.314286a122.441143 122.441143 0 0 0-78.994286 113.737143 125.732571 125.732571 0 0 0 251.392 0 115.126857 115.126857 0 0 0-4.461714-30.646857l555.885714-137.508572a41.106286 41.106286 0 0 0 23.332572-16.676571 45.860571 45.860571 0 0 0 2.486857-30.793143zM368.932571 899.657143a50.322286 50.322286 0 1 1-50.249142-49.078857 50.176 50.176 0 0 1 35.035428 14.043428 38.4 38.4 0 0 0 5.412572 6.144 48.932571 48.932571 0 0 1 9.801142 28.891429z" p-id="8508"></path></svg>
