<?xml version="1.0" standalone="no"?><!DOCTYPE svg PUBLIC "-//W3C//DTD SVG 1.1//EN" "http://www.w3.org/Graphics/SVG/1.1/DTD/svg11.dtd"><svg t="1635298857070" class="icon" viewBox="0 0 1024 1024" version="1.1" xmlns="http://www.w3.org/2000/svg" p-id="3758" xmlns:xlink="http://www.w3.org/1999/xlink" width="200" height="200"><defs><style type="text/css"></style></defs><path d="M144 64h384v128h64V0h-512v768h288v-64h-224z" p-id="3759"></path><path d="M563.2 684.8l147.2-128-147.2-128V512c-118.4-6.4-211.2-105.6-211.2-224 0-32 6.4-60.8 16-86.4-32 41.6-48 96-48 150.4 0 137.6 105.6 246.4 243.2 256v76.8z" p-id="3760"></path><path d="M432 256v99.2c12.8 28.8 35.2 54.4 64 70.4V320h384v640h-384v-297.6c-22.4-6.4-44.8-12.8-64-25.6V1024h512V256h-512z" p-id="3761"></path></svg>