<?xml version="1.0" standalone="no"?><!DOCTYPE svg PUBLIC "-//W3C//DTD SVG 1.1//EN" "http://www.w3.org/Graphics/SVG/1.1/DTD/svg11.dtd"><svg t="1635240677539" class="icon" viewBox="0 0 1194 1024" version="1.1" xmlns="http://www.w3.org/2000/svg" p-id="3412" xmlns:xlink="http://www.w3.org/1999/xlink" width="233.203125" height="200"><defs><style type="text/css"></style></defs><path d="M1131.264 309.845333v-82.261333c0-70.741333-56.149333-149.845333-131.242667-149.845333H621.482667L605.866667 48.298667A89.856 89.856 0 0 0 525.994667 0H122.112C54.698667 0 0 56.32 0 125.44v767.829333c0 69.12 54.784 125.354667 122.112 125.354667H1072.64c67.413333 0 122.112-56.32 122.112-125.44V422.058667c0-40.874667-27.050667-84.138667-63.402667-112.128zM1000.106667 153.088c26.112 0 55.893333 39.68 55.893333 74.496v52.053333l-3.84-0.170666H728.490667l-67.072-126.378667h338.602666z m119.210666 740.181333c0 27.562667-20.906667 50.005333-46.677333 50.005334H122.026667c-25.770667 0-46.762667-22.442667-46.762667-50.005334V125.44c0-27.648 20.992-50.176 46.762667-50.176h403.882666c5.546667 0 10.581333 3.072 13.226667 8.106667L672.426667 334.762667a37.717333 37.717333 0 0 0 33.28 20.053333h346.282666c26.965333 0 67.242667 40.106667 67.242667 67.157333v471.296z" p-id="3413"></path></svg>