<?xml version="1.0" standalone="no"?><!DOCTYPE svg PUBLIC "-//W3C//DTD SVG 1.1//EN" "http://www.w3.org/Graphics/SVG/1.1/DTD/svg11.dtd"><svg t="1635305764871" class="icon" viewBox="0 0 1344 1024" version="1.1" xmlns="http://www.w3.org/2000/svg" p-id="11598" xmlns:xlink="http://www.w3.org/1999/xlink" width="262.5" height="200"><defs><style type="text/css"></style></defs><path d="M672 0C439.068 0 247.413094 165.613958 192 384 79.833094 439.875293 0 549.205334 0 672 0 871.168 133.483062 1024 320 1024 350.964845 1024 415.824218 995.75 416 946.539062 415.824218 897.328125 365.407062 959.75 319.039062 959.75 144.308594 959.75 64 794.359376 64 672 64 549.640624 210.429687 416 256 416 291.117188 259.195313 416.238282 64 672 64 927.761718 64 1063.437501 258.921875 1088 416 1136.304688 416 1280 550.140624 1280 672 1280 793.859376 1204.039062 960 1024 960 980.554573 960 927.535155 896.95703 928 946.539062 927.535155 996.121094 992.804688 1024 1024 1024 1209.556 1024 1344 871.168 1344 672 1344 549.205334 1267.98 435.029334 1158.192 378.794666 1100.4 160.768 904.848 0 672 0ZM768.544 735.913142 736 768 736.976563 544C736 512.070314 713.290666 480 672 480 630.784 480 608 511.589843 608 544L608 768 575.456 735.913142C561.941334 721.769142 543.274666 713.142858 522.666666 713.142858 481.450666 713.142858 448 756.370566 448 800 448 820.753907 456.362666 831.734858 469.877334 845.801142L619.210666 1001.229715C632.725334 1015.296 651.392 1024 672 1024 692.608 1024 711.2 1015.296 724.789334 1001.229715L874.122666 845.801142C887.637334 831.734858 896.425789 821.449142 896 800 896.425789 757.024 862.624 713.142858 821.333334 713.142858 800.725334 713.142858 782.058666 721.769142 768.544 735.913142Z" p-id="11599"></path></svg>