<?xml version="1.0" standalone="no"?><!DOCTYPE svg PUBLIC "-//W3C//DTD SVG 1.1//EN" "http://www.w3.org/Graphics/SVG/1.1/DTD/svg11.dtd"><svg t="1635304480871" class="icon" viewBox="0 0 1026 1024" version="1.1" xmlns="http://www.w3.org/2000/svg" p-id="9043" xmlns:xlink="http://www.w3.org/1999/xlink" width="200.390625" height="200"><defs><style type="text/css"></style></defs><path d="M127.998575 896.001935V441.22481c0-15.23177 6.336904-29.503554 16.959744-39.03941L447.993738 131.725489l303.035419 270.587909a52.351209 52.351209 0 0 1 16.959743 39.03941 63.999033 63.999033 0 0 0 127.998065 0c0-51.519221-21.694672-100.606479-59.710097-134.525966l-309.947315-276.795816a117.182229 117.182229 0 0 0-156.669631 0L59.712607 306.762843A180.285275 180.285275 0 0 0 0.00051 441.22481v461.625021C0.00051 969.216828 52.608715 1024 118.847713 1024h658.294049C843.38076 1024 895.986965 969.216828 895.986965 902.849831a63.999033 63.999033 0 0 0-126.398089-14.079787L768.308895 896.001935H127.998575z" p-id="9044"></path><path d="M747.894204 601.030394a63.999033 63.999033 0 0 0-87.806673 93.118592l74.494874 70.270938a89.598646 89.598646 0 0 0 123.326136-0.319995l148.605753-141.757857a63.999033 63.999033 0 1 0-88.318665-92.670599l-122.238152 116.670236-47.999274-45.311315z" p-id="9045"></path></svg>
