<?xml version="1.0" standalone="no"?><!DOCTYPE svg PUBLIC "-//W3C//DTD SVG 1.1//EN" "http://www.w3.org/Graphics/SVG/1.1/DTD/svg11.dtd"><svg t="1635306744024" class="icon" viewBox="0 0 1024 1024" version="1.1" xmlns="http://www.w3.org/2000/svg" p-id="11771" xmlns:xlink="http://www.w3.org/1999/xlink" width="200" height="200"><defs><style type="text/css"></style></defs><path d="M513.728 471.232a44.992 44.992 0 1 0 89.984 0 44.992 44.992 0 0 0-89.984 0z m412.8 397.056l-205.44-532.032V204.48h80.64V128h-576v76.48h80.64v131.776l-205.504 532.032a72.064 72.064 0 0 0 67.2 97.984h691.392a71.936 71.936 0 0 0 67.2-97.984z m-543.68-517.76V206.72h261.76v143.808l102.208 264.704a289.28 289.28 0 0 0-257.856 58.496 212.352 212.352 0 0 1-136.448 49.408 211.968 211.968 0 0 1-103.296-26.688l133.632-345.92z m-208.32 539.2l46.912-121.28a289.28 289.28 0 0 0 131.2 31.36 289.28 289.28 0 0 0 185.92-67.584 212.352 212.352 0 0 1 136.448-49.344c39.424 0 76.992 10.688 109.824 30.464l68.096 176.384h-678.4z" p-id="11772"></path></svg>