<?xml version="1.0" standalone="no"?><!DOCTYPE svg PUBLIC "-//W3C//DTD SVG 1.1//EN" "http://www.w3.org/Graphics/SVG/1.1/DTD/svg11.dtd"><svg t="1635305556715" class="icon" viewBox="0 0 1024 1024" version="1.1" xmlns="http://www.w3.org/2000/svg" p-id="11070" xmlns:xlink="http://www.w3.org/1999/xlink" width="200" height="200"><defs><style type="text/css"></style></defs><path d="M541.866667 486.4V294.4c0-21.333333-17.066667-38.4-38.4-38.4s-38.4 17.066667-38.4 38.4v192c-25.6 12.8-42.666667 42.666667-42.666667 72.533333 0 46.933333 38.4 81.066667 81.066667 81.066667 46.933333 0 81.066667-38.4 81.066666-81.066667 0-29.866667-17.066667-59.733333-42.666666-72.533333z m-38.4 110.933333c-21.333333 0-38.4-17.066667-38.4-38.4 0-17.066667 12.8-34.133333 25.6-38.4l12.8-4.266666 12.8 4.266666c17.066667 4.266667 25.6 21.333333 25.6 38.4 0 21.333333-17.066667 38.4-38.4 38.4z" p-id="11071"></path><path d="M780.8 221.866667l46.933333-68.266667c12.8-17.066667 8.533333-42.666667-8.533333-55.466667-17.066667-12.8-42.666667-8.533333-55.466667 8.533334l-46.933333 68.266666C661.333333 145.066667 601.6 128 541.866667 123.733333v-42.666666h85.333333c21.333333 0 38.4-17.066667 38.4-38.4s-17.066667-42.666667-38.4-42.666667H379.733333c-25.6 0-42.666667 17.066667-42.666666 38.4s17.066667 38.4 38.4 38.4h85.333333v42.666667C238.933333 140.8 64 332.8 64 558.933333c0 243.2 196.266667 439.466667 439.466667 439.466667 243.2 0 439.466667-196.266667 439.466666-439.466667-4.266667-132.266667-64-256-162.133333-337.066666z m-277.333333 695.466666c-196.266667 0-358.4-162.133333-358.4-358.4s162.133333-358.4 358.4-358.4c64 0 128 17.066667 183.466666 51.2l12.8 8.533334 4.266667 4.266666h4.266667s4.266667 4.266667 8.533333 4.266667c93.866667 68.266667 149.333333 174.933333 149.333333 294.4-4.266667 192-166.4 354.133333-362.666666 354.133333z" p-id="11072"></path></svg>