<?xml version="1.0" standalone="no"?><!DOCTYPE svg PUBLIC "-//W3C//DTD SVG 1.1//EN" "http://www.w3.org/Graphics/SVG/1.1/DTD/svg11.dtd"><svg t="1635242460893" class="icon" viewBox="0 0 1024 1024" version="1.1" xmlns="http://www.w3.org/2000/svg" p-id="4691" xmlns:xlink="http://www.w3.org/1999/xlink" width="200" height="200"><defs><style type="text/css"></style></defs><path d="M806.752 328.416a168 168 0 1 0-168 168 168.192 168.192 0 0 0 168-168z m-272 0a104 104 0 1 1 104 104 104.128 104.128 0 0 1-104-104zM382.752 711.616a152.16 152.16 0 0 0 152 152h208a152 152 0 0 0 0-304h-208a152.16 152.16 0 0 0-152 152z m152-88h208a88 88 0 0 1 0 176h-208a88 88 0 1 1 0-176z" p-id="4692"></path><path d="M963.424 16H160.736a38.72 38.72 0 0 0-38.656 38.656v204.64h64V80h752v864h-752v-179.296h-64v204.64A38.72 38.72 0 0 0 160.736 1008h802.688a38.72 38.72 0 0 0 38.656-38.656V54.656A38.72 38.72 0 0 0 963.424 16z" p-id="4693"></path><path d="M53.92 387.296h192a32 32 0 1 0 0-64h-192a32 32 0 0 0 0 64zM277.92 668.704a32 32 0 0 0-32-32h-192a32 32 0 0 0 0 64h192a32 32 0 0 0 32-32zM122.08 451.296h64v121.408h-64z" p-id="4694"></path></svg>
