<?xml version="1.0" standalone="no"?><!DOCTYPE svg PUBLIC "-//W3C//DTD SVG 1.1//EN" "http://www.w3.org/Graphics/SVG/1.1/DTD/svg11.dtd"><svg t="1635297632291" class="icon" viewBox="0 0 1024 1024" version="1.1" xmlns="http://www.w3.org/2000/svg" p-id="2697" xmlns:xlink="http://www.w3.org/1999/xlink" width="200" height="200"><defs><style type="text/css"></style></defs><path d="M254 619.8l244.6 102.6c3.9 1.9 8.2 2.9 12.5 2.9h1.1c7 0 13.8-2.2 19.4-6.3 9.6-6.7 15.3-17.6 15.3-29.3V300.2l174.8-73.3V564l-112.1 47.3h-0.1c-17.1 7.9-24.8 27.5-17.6 44.9 7.1 17.3 26.5 25.9 44.1 19.4l133.9-55.8c13.2-5.4 21.6-18 21.7-32.2V174.4c0.2-11.8-5.6-22.8-15.4-29.4l-0.1-0.1c-9.8-6-22.1-7.1-32.7-2.8L498.7 244.9c-13.2 5.4-21.6 18-21.7 32.2v360.2L302.2 564V227l86.1 36.2 0.1 0.1c17.6 6.5 37-2 44.1-19.4 7.1-17.3-0.6-37.1-17.6-44.9l-134.4-56.5c-10.8-4.7-23.1-3.7-32.9 2.9-9.6 6.7-15.4 17.6-15.4 29.3v413.1c0.2 14 8.7 26.7 21.8 32z" p-id="2698"></path><path d="M893 325.9c-18.7 0-33.9 15.2-33.9 33.9v321.1L512 815.5 165 680.9v-346c0-18.7-15.2-33.9-33.9-33.9s-34 15.2-34 33.9v370c-0.1 14.1 8.6 27.1 21.8 32.4l381 147.7h0.1c3.9 1.3 8 2 12.1 2h0.7c3.9 0 7.8-0.7 11.5-2.1l381.1-147.7c13.1-5.5 21.6-18.1 21.7-32.3V359.8c-0.2-18.7-15.4-33.9-34.1-33.9z" p-id="2699"></path></svg>