<?xml version="1.0" standalone="no"?><!DOCTYPE svg PUBLIC "-//W3C//DTD SVG 1.1//EN" "http://www.w3.org/Graphics/SVG/1.1/DTD/svg11.dtd"><svg t="1635303528334" class="icon" viewBox="0 0 1024 1024" version="1.1" xmlns="http://www.w3.org/2000/svg" p-id="7625" xmlns:xlink="http://www.w3.org/1999/xlink" width="200" height="200"><defs><style type="text/css"></style></defs><path d="M970.24 949.76l-67.2-67.84A163.84 163.84 0 1 0 764.16 960a165.12 165.12 0 0 0 87.68-25.6l67.84 67.84a35.2 35.2 0 0 0 25.6 10.24 34.56 34.56 0 0 0 24.96-10.24 35.2 35.2 0 0 0 0-52.48z m-297.6-155.52a92.16 92.16 0 0 1 183.68 0 90.24 90.24 0 0 1-26.88 64 91.52 91.52 0 0 1-156.16-64z" p-id="7626"></path><path d="M868.48 592a36.48 36.48 0 0 0 35.84 36.48 37.12 37.12 0 0 0 36.48-36.48V303.36a86.4 86.4 0 0 0-44.8-75.52L535.68 18.56A88.96 88.96 0 0 0 448 18.56L86.4 227.84a87.04 87.04 0 0 0-43.52 75.52v417.28a87.04 87.04 0 0 0 43.52 75.52L448 1004.8a89.6 89.6 0 0 0 43.52 12.16 36.48 36.48 0 0 0 36.48-36.48V551.04l340.48-196.48z m-412.8 334.08l-332.8-192a14.08 14.08 0 0 1-7.68-12.8V348.8l340.48 196.48z m40.96-440.96L140.8 279.68l343.68-198.4a15.36 15.36 0 0 1 14.72 0l348.8 201.6z" p-id="7627"></path></svg>