<?xml version="1.0" standalone="no"?><!DOCTYPE svg PUBLIC "-//W3C//DTD SVG 1.1//EN" "http://www.w3.org/Graphics/SVG/1.1/DTD/svg11.dtd"><svg t="1635303994551" class="icon" viewBox="0 0 1032 1024" version="1.1" xmlns="http://www.w3.org/2000/svg" p-id="8328" xmlns:xlink="http://www.w3.org/1999/xlink" width="201.5625" height="200"><defs><style type="text/css"></style></defs><path d="M699.733333 0l196.266667 179.2V341.333333H802.133333V221.866667L665.6 93.866667H93.866667V938.666667h290.133333v85.333333H0V0h699.733333zM1024 955.733333v68.266667H512v-68.266667h512zM768 469.333333c68.266667 0 128 59.733333 128 128v42.666667l-17.066667 59.733333h110.933334c25.6 0 42.666667 17.066667 42.666666 42.666667V853.333333c0 25.6-17.066667 42.666667-42.666666 42.666667h-426.666667c-25.6 0-42.666667-17.066667-42.666667-42.666667V742.4c0-25.6 17.066667-42.666667 42.666667-42.666667h110.933333l-17.066666-59.733333c0-17.066667-8.533333-25.6-8.533334-42.666667 0-68.266667 51.2-119.466667 119.466667-128z m0 68.266667c-34.133333 0-59.733333 25.6-59.733333 59.733333V622.933333l17.066666 59.733334c8.533333 42.666667-17.066667 85.333333-59.733333 85.333333H571.733333v59.733333h375.466667V768h-85.333333c-42.666667 0-76.8-42.666667-68.266667-76.8V682.666667l17.066667-51.2v-8.533334V597.333333c17.066667-34.133333-8.533333-59.733333-42.666667-59.733333zM512 512v93.866667H213.333333V512H512z m128-256v93.866667h-426.666667V256h426.666667z" p-id="8329"></path></svg>