<?xml version="1.0" standalone="no"?><!DOCTYPE svg PUBLIC "-//W3C//DTD SVG 1.1//EN" "http://www.w3.org/Graphics/SVG/1.1/DTD/svg11.dtd"><svg t="1635241485570" class="icon" viewBox="0 0 1097 1024" version="1.1" xmlns="http://www.w3.org/2000/svg" p-id="3809" xmlns:xlink="http://www.w3.org/1999/xlink" width="214.2578125" height="200"><defs><style type="text/css"></style></defs><path d="M89.709402 808.843305v125.447293h914.59829v-125.447293z m-8.752137-88.980057h932.102564A80.22792 80.22792 0 0 1 1094.017094 802.279202v145.868946a80.957265 80.957265 0 0 1-80.957265 72.934473H80.957265A80.957265 80.957265 0 0 1 0 940.854701v-138.575499a80.22792 80.22792 0 0 1 80.957265-80.22792z m8.752137-627.965812v412.079772h627.965812V91.897436zM80.957265 0h645.470085a80.957265 80.957265 0 0 1 80.957265 80.22792v430.313391a80.957265 80.957265 0 0 1-80.957265 80.22792H80.957265a83.874644 83.874644 0 0 1-57.618234-23.339032A84.603989 84.603989 0 0 1 0 510.541311V83.874644A80.22792 80.22792 0 0 1 80.957265 3.646724z" p-id="3810"></path><path d="M801.549858 385.823362l201.299145 100.649572v-364.672364l-201.299145 100.649572zM975.133903 34.279202a82.415954 82.415954 0 0 1 118.883191 72.934473v393.846154a83.145299 83.145299 0 0 1-82.415954 82.415954 78.769231 78.769231 0 0 1-36.467237-8.752136L710.381766 441.982906V167.019943L975.133903 34.279202z" p-id="3811"></path></svg>
