<?xml version="1.0" standalone="no"?><!DOCTYPE svg PUBLIC "-//W3C//DTD SVG 1.1//EN" "http://www.w3.org/Graphics/SVG/1.1/DTD/svg11.dtd"><svg t="1635304841947" class="icon" viewBox="0 0 1024 1024" version="1.1" xmlns="http://www.w3.org/2000/svg" p-id="9916" xmlns:xlink="http://www.w3.org/1999/xlink" width="200" height="200"><defs><style type="text/css"></style></defs><path d="M912.116012 624.111215a461.005652 461.005652 0 0 0-98.762297-277.581162 69.761647 69.761647 0 0 0-13.669096-81.928374l16.353658-28.323352a59.540611 59.540611 0 0 0-21.796667-81.275705l-5.233663-3.017053 5.910961-10.23335A59.540611 59.540611 0 0 0 773.085298 60.341054L682.438257 8.004426a59.540611 59.540611 0 0 0-81.275705 21.796666l-5.91096 10.23335-5.233663-3.017053a59.602184 59.602184 0 0 0-81.275706 21.796667L291.588316 434.701878a94.563052 94.563052 0 0 0 25.392501 122.947976 94.439907 94.439907 0 0 0 162.834644 94.033529 93.454747 93.454747 0 0 0 37.226736 7.758135 94.981745 94.981745 0 0 0 24.629002-3.263343 93.824182 93.824182 0 0 0 57.34863-43.999711l132.996609-230.281165a69.761647 69.761647 0 0 0 44.76321-2.155038 413.003728 413.003728 0 0 1-37.214421 547.330303 166.048729 166.048729 0 0 1-45.292734 31.771412l-113.293408-107.234673a94.132044 94.132044 0 0 0-64.318638-25.860451l-243.038987-1.50237A94.181302 94.181302 0 0 0 209.081161 849.097145l-77.95079 71.424105a59.540611 59.540611 0 0 0 40.231474 103.441806h451.819034a213.890564 213.890564 0 0 0 150.938837-61.831108A461.104168 461.104168 0 0 0 912.116012 624.111215zM556.350084 587.561777a45.181903 45.181903 0 0 1-61.720278 16.538375l-143.83337-83.024365A45.243476 45.243476 0 0 1 334.258062 459.33088L551.301138 83.430743a10.282608 10.282608 0 0 1 14.038531-3.768237l5.233663 3.017052-0.270919 0.467951 193.817928 111.901869 0.270919-0.467951 5.233663 3.017053a10.282608 10.282608 0 0 1 3.755923 14.038531L754.084023 245.058566c-0.972846 0-1.945691-0.073887-2.918537-0.073887A69.798591 69.798591 0 0 0 692.228285 352.194723z" p-id="9917"></path></svg>