<?xml version="1.0" standalone="no"?><!DOCTYPE svg PUBLIC "-//W3C//DTD SVG 1.1//EN" "http://www.w3.org/Graphics/SVG/1.1/DTD/svg11.dtd"><svg t="1635300832802" class="icon" viewBox="0 0 1024 1024" version="1.1" xmlns="http://www.w3.org/2000/svg" p-id="5350" xmlns:xlink="http://www.w3.org/1999/xlink" width="200" height="200"><defs><style type="text/css"></style></defs><path d="M328.342588 298.827294L303.887059 402.371765H485.496471c14.697412 0 26.563765 12.950588 26.563764 28.912941 0 16.022588-11.866353 28.912941-26.503529 28.973176H290.153412L265.758118 563.802353H404.781176c12.769882 0 23.070118 13.010824 23.070118 28.912941 0 16.022588-10.24 28.973176-23.070118 29.033412H252.084706l-24.45553 103.484235h188.175059c14.697412 0 26.503529 12.950588 26.50353 28.912941s-11.806118 28.912941-26.50353 28.973177h-201.788235l-24.094118 101.978353c-5.421176 25.298824 5.059765 38.430118 30.900706 38.430117h582.354824c25.901176 0 36.321882-13.010824 31.081412-37.586823L648.734118 100.592941H375.265882l-3.493647 14.637177L342.076235 240.941176h132.336941c12.769882 0 23.130353 13.010824 23.070118 28.912942 0 16.022588-10.24 28.912941-23.070118 28.973176H328.342588z m414.59953-153.359059l170.646588 722.582589c16.263529 76.016941-32.768 136.734118-110.411294 136.734117H220.822588c-77.643294 0-126.735059-60.837647-110.230588-137.577412l170.465882-721.679058-11.143529-0.240942c-34.876235-0.722824-64.451765-21.082353-64.451765-59.934117 0-36.382118 29.515294-66.078118 65.837177-66.078118h481.40047c36.382118 0 65.776941 29.696 65.776941 65.897412 0.180706 38.912-29.093647 59.030588-64.451764 60.114823l-11.083294 0.180706z" p-id="5351"></path></svg>