<?xml version="1.0" standalone="no"?><!DOCTYPE svg PUBLIC "-//W3C//DTD SVG 1.1//EN" "http://www.w3.org/Graphics/SVG/1.1/DTD/svg11.dtd"><svg t="1635300272656" class="icon" viewBox="0 0 1024 1024" version="1.1" xmlns="http://www.w3.org/2000/svg" p-id="4824" xmlns:xlink="http://www.w3.org/1999/xlink" width="200" height="200"><defs><style type="text/css"></style></defs><path d="M282.996364 364.916364l145.687272 1.861818v127.534545l-145.687272-0.465454V364.916364zM428.683636 743.330909l-145.687272-0.465454v-128.93091l145.687272 1.396364v128zM579.025455 364.916364l146.152727 1.861818v127.534545l-146.152727-0.465454V364.916364zM725.178182 743.330909l-145.687273-0.465454v-128.93091l145.687273 1.396364v128z" p-id="4825"></path><path d="M950.923636 844.334545a37.236364 37.236364 0 0 1-35.84-37.236363V266.24h41.890909v-39.098182a36.770909 36.770909 0 0 0-36.770909-37.701818h-252.276363V186.181818c9.309091-61.44-23.738182-80.058182-38.632728-85.643636a32.116364 32.116364 0 0 0-11.636363 0H284.858182c-33.047273 4.189091-43.287273 33.978182-46.545455 58.181818a36.305455 36.305455 0 0 1-36.770909 31.650909H105.192727a36.770909 36.770909 0 0 0-36.770909 36.305455v55.854545h41.890909v523.636364a36.770909 36.770909 0 0 1-36.770909 37.236363 36.770909 36.770909 0 0 0-37.236363 37.236364v6.050909a37.236364 37.236364 0 0 0 37.236363 36.770909h875.054546a37.236364 37.236364 0 0 0 37.236363-37.701818v-6.516364a37.236364 37.236364 0 0 0-34.909091-34.909091zM302.08 178.269091a15.825455 15.825455 0 0 1 16.756364-14.429091h275.549091a15.825455 15.825455 0 0 1 16.756363 14.429091v4.654545a15.825455 15.825455 0 0 1-16.756363 14.429091H318.836364a15.825455 15.825455 0 0 1-16.756364-14.429091z m542.254545 95.883636v568.785455H181.992727V266.705455h665.6z" p-id="4826"></path></svg>
