<?xml version="1.0" standalone="no"?><!DOCTYPE svg PUBLIC "-//W3C//DTD SVG 1.1//EN" "http://www.w3.org/Graphics/SVG/1.1/DTD/svg11.dtd"><svg t="1635241974521" class="icon" viewBox="0 0 1024 1024" version="1.1" xmlns="http://www.w3.org/2000/svg" p-id="4160" xmlns:xlink="http://www.w3.org/1999/xlink" width="200" height="200"><defs><style type="text/css"></style></defs><path d="M694.86848 494.445714a182.857143 182.857143 0 1 0-182.857143 182.857143 182.857143 182.857143 0 0 0 182.857143-182.857143z m-292.571429 0a109.714286 109.714286 0 1 1 109.714286 109.714286 109.714286 109.714286 0 0 1-109.714286-109.714286z" p-id="4161"></path><path d="M459.714194 194.925714a52.662857 52.297143 90 1 0 104.594286 0 52.662857 52.297143 90 1 0-104.594286 0Z" p-id="4162"></path><path d="M709.131337 798.354286A424.228571 424.228571 0 0 0 512.011337 0a424.228571 424.228571 0 0 0-207.725714 792.502857l-73.142857 158.354286H109.725623v73.142857h804.571428v-73.142857h-146.285714zM164.582766 423.862857a348.16 348.16 0 1 1 348.16 350.72 349.622857 349.622857 0 0 1-348.16-350.72zM371.577051 822.857143a421.302857 421.302857 0 0 0 141.165715 24.868571 412.525714 412.525714 0 0 0 129.828571-20.845714l47.542857 123.977143H312.697051z" p-id="4163"></path></svg>