<?xml version="1.0" standalone="no"?><!DOCTYPE svg PUBLIC "-//W3C//DTD SVG 1.1//EN" "http://www.w3.org/Graphics/SVG/1.1/DTD/svg11.dtd"><svg t="1635298076094" class="icon" viewBox="0 0 1024 1024" version="1.1" xmlns="http://www.w3.org/2000/svg" p-id="3054" xmlns:xlink="http://www.w3.org/1999/xlink" width="200" height="200"><defs><style type="text/css"></style></defs><path d="M715.97968 322.07714a38.222389 38.222389 0 0 0-19.811101-21.352399 39.164628 39.164628 0 0 0-25.368203-4.557667c-21.572154 3.386642-36.310818 23.814864-32.86397 45.618815a40.049671 40.049671 0 0 0 19.227094 28.333396c38.083913 40.775165 61.519473 95.358796 61.519473 155.553716 0 65.866416-28.071496 125.040828-72.742051 166.707055a38.848542 38.848542 0 0 0-13.522484 29.48937c0 21.502916 17.420884 38.953904 38.962935 38.953904 11.005833 0 20.939981-4.572719 28.032362-11.914957a38.219379 38.219379 0 0 0 16.571966-19.678646c48.812794-53.900282 78.816933-125.101035 78.816933-203.568767-0.009031-78.44365-30.00715-149.641392-78.822954-203.58382m136.293509-142.091439c-6.469238-13.197366-20.033866-22.273565-35.711759-22.273566-21.993603 0-39.802822 17.81223-39.802822 39.793792 0 14.425588 7.685419 27.050988 19.154844 34.038005 67.434807 70.553528 109.076952 165.951458 109.076953 271.250424 0 117.906303-52.175353 223.419003-134.439135 295.429539l0.168579 0.186641c-12.914393 6.40301-21.79191 19.71778-21.791909 35.091628 0 21.638382 17.535278 39.146566 39.161618 39.146566a39.074318 39.074318 0 0 0 31.39191-15.717027c0.34318-0.412418 0.68937-0.839887 1.020508-1.252305l0.108372 0.111383c98.317968-86.065851 160.719473-212.100094 160.719473-352.993415-0.00301-125.155221-49.20715-238.675447-129.056632-322.811665M433.666228 112.382314l-195.642522 200.152023h-119.239887c-51.022389 0-76.113641 27.466416-76.11364 76.116651v253.636877c0 47.879586 25.882973 76.128692 76.11364 76.128692h119.239887l195.642522 200.152022c56.209219 52.783443 141.763311 29.519473 141.763311-58.129821v-689.971778c-0.015052-88.537347-86.631797-109.781373-141.763311-58.084666m65.640639 709.093509c0 57.615052-25.539793 25.298965-51.750893-0.553904-45.691063-45.085983-114.697272-117.933396-171.448354-178.606961h-106.596425c-38.580621 0-50.751458-12.950517-50.751458-50.745438v-152.200188c0-37.01223 12.962559-50.718344 50.751458-50.718344h107.782502c56.431985-60.992662 124.784948-133.713641 170.442898-178.402258 25.916087-25.34412 51.558231-58.388711 51.558231 1.613547 0.012041 123.93904 0.012041 488.179116 0.012041 609.613546" fill="#666666" p-id="3055"></path></svg>