<?xml version="1.0" standalone="no"?><!DOCTYPE svg PUBLIC "-//W3C//DTD SVG 1.1//EN" "http://www.w3.org/Graphics/SVG/1.1/DTD/svg11.dtd"><svg t="1635305421909" class="icon" viewBox="0 0 1024 1024" version="1.1" xmlns="http://www.w3.org/2000/svg" p-id="10893" xmlns:xlink="http://www.w3.org/1999/xlink" width="200" height="200"><defs><style type="text/css"></style></defs><path d="M362.645333 539.861333a275.584 275.584 0 1 1 155.52 48.042667c-223.488 0-403.370667 163.498667-403.370666 363.392a35.925333 35.925333 0 0 1-71.893334 0c0-191.061333 133.973333-352.554667 319.744-411.434667z m155.52-23.893333a203.690667 203.690667 0 1 0 0-407.338667 203.690667 203.690667 0 0 0 0 407.381334z m153.045334 361.898667l244.736-205.354667a39.936 39.936 0 1 1 51.370666 61.184l-275.370666 231.04a39.936 39.936 0 0 1-56.277334-4.906667l-114.858666-136.96a39.936 39.936 0 1 1 61.184-51.285333l89.173333 106.282667z" p-id="10894"></path></svg>
