<?xml version="1.0" standalone="no"?><!DOCTYPE svg PUBLIC "-//W3C//DTD SVG 1.1//EN" "http://www.w3.org/Graphics/SVG/1.1/DTD/svg11.dtd"><svg t="1635303899367" class="icon" viewBox="0 0 1024 1024" version="1.1" xmlns="http://www.w3.org/2000/svg" p-id="8155" xmlns:xlink="http://www.w3.org/1999/xlink" width="200" height="200"><defs><style type="text/css"></style></defs><path d="M700.032 256a32 32 0 0 1 0 64h-448a32 32 0 0 1 0-64h448z m-320 192a32 32 0 0 1 0 64h-128a32 32 0 0 1 0-64h128z m136.384 93.44c36.16 0 68.032 26.112 79.744 64.384l2.176 8.384 40.64 185.792h182.464l37.44-127.04h-184c-13.76 0-25.28-11.328-27.648-26.24l-0.448-5.76c0-15.68 9.92-28.8 23.04-31.488l5.12-0.512h215.296l5.44 0.512 5.312 1.472c15.872 6.08 25.216 24.32 22.592 42.56l-1.28 6.08-52.544 178.24a35.328 35.328 0 0 1-26.688 25.728l-5.312 0.448H621.44c-13.824 0-26.048-9.472-31.232-23.68l-1.6-5.44-44.864-205.248a29.888 29.888 0 0 0-22.592-23.808L516.48 605.44h-12.288c-15.552 0-28.16-14.336-28.16-32 0-15.68 9.984-28.8 23.04-31.488l5.12-0.512h12.288zM828.032 64a32 32 0 0 1 32 32v384a32 32 0 0 1-64 0V128h-640v768h288a32 32 0 0 1 0 64h-320a32 32 0 0 1-32-32v-832a32 32 0 0 1 32-32h704z m0 832a32 32 0 1 1 0 64 32 32 0 0 1 0-64z m-192 0a32 32 0 1 1 0 64 32 32 0 0 1 0-64z" p-id="8156"></path></svg>