<?xml version="1.0" standalone="no"?><!DOCTYPE svg PUBLIC "-//W3C//DTD SVG 1.1//EN" "http://www.w3.org/Graphics/SVG/1.1/DTD/svg11.dtd"><svg t="1635303130104" class="icon" viewBox="0 0 1052 1024" version="1.1" xmlns="http://www.w3.org/2000/svg" p-id="7102" xmlns:xlink="http://www.w3.org/1999/xlink" width="205.46875" height="200"><defs><style type="text/css"></style></defs><path d="M553.728 220.672H227.328a38.4 38.4 0 0 0 0 76.8h326.4a38.4 38.4 0 0 0 0-76.8zM592.128 442.624a38.4 38.4 0 0 0-38.4-38.4H227.328a38.4 38.4 0 0 0 0 76.8h326.4a38.4 38.4 0 0 0 38.4-38.4zM227.328 588.8a38.4 38.4 0 0 0 0 76.8h149.76a38.4 38.4 0 0 0 0-76.8zM861.184 563.2l-199.424 252.16-82.176 17.408V750.08l193.536-246.272c11.776-11.776 11.776-35.072 0-40.96a35.84 35.84 0 0 0-40.96 5.888l-204.8 257.792a22.528 22.528 0 0 0-5.888 17.664l5.888 123.136a27.648 27.648 0 0 0 8.192 21.248 27.136 27.136 0 0 0 21.248 7.936l128-29.184c5.632 0 11.52 0 11.52-5.888l211.2-263.936a27.392 27.392 0 0 0-5.376-34.304 49.664 49.664 0 0 0-40.96 0zM819.2 416a28.672 28.672 0 0 0-40.96 5.632 27.904 27.904 0 0 0 5.888 35.328l128 99.584a20.992 20.992 0 0 0 17.408 5.888c5.888 0 11.776 0 17.664-11.776 11.776-11.776 5.888-23.296 0-35.072zM866.816 351.488a27.392 27.392 0 0 0-35.072 5.888c-11.776 11.52-11.776 29.184 0 35.072l128 105.472a21.248 21.248 0 0 0 17.664 5.888c5.632 0 17.408-5.888 17.408-11.776a27.648 27.648 0 0 0 8.96-20.48 28.416 28.416 0 0 0-8.96-20.48zM1042.688 392.448l-128-99.584a36.096 36.096 0 0 0-41.216 5.888c-5.888 11.52-5.888 29.184 5.888 35.072l128 99.584a21.504 21.504 0 0 0 17.664 5.888c5.888 0 11.776 0 23.296-11.776a27.136 27.136 0 0 0-5.632-35.072z" p-id="7103"></path><path d="M816.896 809.984a38.4 38.4 0 0 0-38.4 38.4v76.288a22.528 22.528 0 0 1-22.528 22.528H99.328a22.784 22.784 0 0 1-22.528-22.528V99.328A22.784 22.784 0 0 1 99.328 76.8h656.64a22.528 22.528 0 0 1 22.528 22.528v109.312a38.4 38.4 0 0 0 76.8 0V99.328A99.328 99.328 0 0 0 755.968 0H99.328A99.328 99.328 0 0 0 0 99.328v825.344A99.328 99.328 0 0 0 99.328 1024h656.64a99.328 99.328 0 0 0 99.328-99.328v-76.288a38.4 38.4 0 0 0-38.4-38.4z" p-id="7104"></path></svg>