<?xml version="1.0" standalone="no"?><!DOCTYPE svg PUBLIC "-//W3C//DTD SVG 1.1//EN" "http://www.w3.org/Graphics/SVG/1.1/DTD/svg11.dtd"><svg t="1635304545983" class="icon" viewBox="0 0 1024 1024" version="1.1" xmlns="http://www.w3.org/2000/svg" p-id="9217" xmlns:xlink="http://www.w3.org/1999/xlink" width="200" height="200"><defs><style type="text/css"></style></defs><path d="M939.008 567.808c-102.4-26.112-188.416-77.312-226.816-94.72-50.176-22.016-78.848-4.096-195.072 21.504-116.224 25.6-166.4 28.672-166.4 28.672-16.896 28.16 5.12 73.728 43.52 85.504 38.4 11.776 180.224-1.536 216.576-7.168 17.92-2.56 19.968 18.432-1.024 39.424-22.528 22.528-79.872 41.472-122.88 54.272-62.464 18.432-150.528-8.192-150.528-8.192s-122.88-67.584-202.24-85.504C54.272 583.68 61.44 651.776 61.44 651.776s148.992 96.768 195.072 121.344c46.592 24.576 117.248 90.624 180.736 85.504 62.976-4.608 289.792-63.488 339.456-57.344 22.016 3.072 56.832 11.776 89.088 19.456 1.024 0 2.048 0.512 2.56 0.512 2.56 1.024 5.12 1.536 8.192 1.536 9.728 0 17.92-5.12 23.04-12.8 1.024-2.048 2.048-4.608 3.584-6.656 23.552-49.152 47.616-147.968 58.88-198.144 3.584-16.384-6.656-32.768-23.04-37.376z" p-id="9218"></path><path d="M335.872 204.288V132.096c0.512-3.584-1.024-7.168-5.12-10.24-7.168-4.608-18.432-4.608-25.6 0l-179.2 134.656c-3.584 2.56-5.632 6.144-5.12 9.216-0.512 3.584 1.536 6.656 5.12 9.216l178.176 133.632c6.656 4.096 18.944 6.144 26.624 0.512 4.096-2.56 5.632-5.12 5.12-8.704V327.168c118.272 0 225.28 58.368 246.784 135.168 14.336-22.528 22.528-47.104 22.528-73.728 0-101.376-120.832-184.32-269.312-184.32z m0 0" p-id="9219"></path></svg>