<?xml version="1.0" standalone="no"?><!DOCTYPE svg PUBLIC "-//W3C//DTD SVG 1.1//EN" "http://www.w3.org/Graphics/SVG/1.1/DTD/svg11.dtd"><svg t="1635304643687" class="icon" viewBox="0 0 1117 1024" version="1.1" xmlns="http://www.w3.org/2000/svg" p-id="9391" xmlns:xlink="http://www.w3.org/1999/xlink" width="218.1640625" height="200"><defs><style type="text/css"></style></defs><path d="M1057.885091 704.884364l-277.255758 262.423272c-36.460606 34.536727-91.198061 55.26497-142.242909 55.26497-54.737455 0-105.782303-20.728242-142.273939-55.26497L43.783758 546.071273C14.584242 518.454303 0 490.806303 0 463.189333V97.186909C0 41.95297 54.706424 0.527515 134.981818 0.527515h390.299152c25.537939 0 58.368 0 83.905939 24.172606l445.036606 421.236364c40.122182 34.536727 62.029576 82.850909 62.029576 127.751757 0 48.345212-21.907394 96.690424-58.368 131.196122z m-69.321697-203.71394L543.526788 83.378424H134.981818c-21.907394 0-47.445333 6.919758-47.445333 13.808485v369.477818s3.661576 10.333091 18.245818 20.697212l452.328727 424.711758c20.324848 19.207758 46.948848 29.137455 73.976243 30.502788l-1.024-2.885818c29.199515 0 58.368-10.364121 80.275394-31.061334l277.224727-262.423272c43.783758-41.456485 43.783758-103.579152 0-145.035637z m-215.226182 245.170424c-10.953697 0-21.876364-6.919758-32.83006-13.808484l-207.903031-196.825212c-18.245818-17.252848-18.245818-41.425455 0-58.709334 10.922667-10.333091 21.876364-13.808485 32.799031-13.808485 14.615273 0 25.537939 6.919758 32.83006 13.808485l207.934061 196.825212c18.245818 17.252848 18.245818 41.425455 0 58.709334-10.953697 10.333091-21.876364 13.808485-32.830061 13.808484z m-441.37503-272.787393c-98.490182 0-175.104-75.962182-175.104-165.732849 0-93.246061 80.244364-165.732848 175.104-165.732848 94.828606 0 175.104 75.962182 175.104 165.732848 0 93.21503-76.613818 165.732848-175.104 165.732849z m0-248.614788c-47.445333 0-87.567515 37.981091-87.567515 82.881939 0 44.900848 40.122182 82.850909 87.567515 82.850909 47.414303 0 83.905939-37.950061 87.536485-82.850909 0-44.900848-40.122182-82.881939-87.536485-82.881939z" p-id="9392"></path></svg>