<?xml version="1.0" standalone="no"?><!DOCTYPE svg PUBLIC "-//W3C//DTD SVG 1.1//EN" "http://www.w3.org/Graphics/SVG/1.1/DTD/svg11.dtd"><svg t="1635298746743" class="icon" viewBox="0 0 1024 1024" version="1.1" xmlns="http://www.w3.org/2000/svg" p-id="3585" xmlns:xlink="http://www.w3.org/1999/xlink" width="200" height="200"><defs><style type="text/css"></style></defs><path d="M830.656 798.272H193.344a72.128 72.128 0 0 1-72.064-72V294.336c0-39.68 32.32-72 72.064-72h637.248c39.68 0 72 32.32 72 72v431.936a72 72 0 0 1-71.936 72zM193.344 286.336a8.064 8.064 0 0 0-8.064 8v431.936c0 4.416 3.648 8 8.064 8h637.248a8 8 0 0 0 8-8V294.336a7.936 7.936 0 0 0-8-8H193.344zM716.544 904.128H307.008a32 32 0 0 1 0-64h409.536a32 32 0 0 1 0 64z" p-id="3586"></path></svg>