<?xml version="1.0" standalone="no"?><!DOCTYPE svg PUBLIC "-//W3C//DTD SVG 1.1//EN" "http://www.w3.org/Graphics/SVG/1.1/DTD/svg11.dtd"><svg t="1635298936710" class="icon" viewBox="0 0 1024 1024" version="1.1" xmlns="http://www.w3.org/2000/svg" p-id="3933" xmlns:xlink="http://www.w3.org/1999/xlink" width="200" height="200"><defs><style type="text/css"></style></defs><path d="M826.955 909.215c16.524 0 29.92 13.383 29.92 29.892 0 16.274-13.016 29.51-29.214 29.885l-0.706 0.008h-632.91c-16.524 0-29.92-13.383-29.92-29.893 0-16.273 13.016-29.51 29.214-29.884l0.706-0.008h632.91zM509.373 77c122.02 0.12 220.794 99.721 220.913 222.514 0 41.436-12.668 82.375-38.06 124.547l-1.182 1.947c-19.782 32.373-30.757 72.689-34.426 117.09a400.821 400.821 0 0 0-1.04 48.299l0.124 2.953c0.378 8.226 0.956 15.249 1.579 20.696l0.084 0.733 0.196 1.082a58.39 58.39 0 0 1 0.795 8.316l0.007 0.689h161.688c41.526 0 75.268 33.298 75.939 74.627l0.01 1.255v80.48c0 41.908-34.004 75.881-75.95 75.881h-619.1c-41.946 0-75.95-33.973-75.95-75.88v-80.481c0-41.908 34.004-75.882 75.95-75.882h160.117l0.002-0.241c0.03-1.87 0.145-3.738 0.346-5.598l0.198-1.624 0.089-0.61 0.245-1.997c0.081-0.697 0.167-1.464 0.255-2.3l0.251-2.495c0.328-3.427 0.63-7.254 0.88-11.435 0.9-14.962 0.987-31.252-0.065-48.228-2.894-46.704-13.726-89.363-34.323-123.324l-1.005-1.636c-26.38-42.488-39.54-84.177-39.54-126.9C288.548 176.73 387.303 77.15 509.373 77zM820.05 685.652H200.949c-8.897 0-16.11 7.206-16.11 16.096v80.48c0 8.89 7.213 16.096 16.11 16.096h619.102c8.897 0 16.11-7.206 16.11-16.096v-80.48c0-8.89-7.213-16.096-16.11-16.096zM509.38 136.785c-88.889 0.11-161.033 72.857-161.141 162.729 0 30.397 9.446 60.836 29.504 93.648l1.046 1.7c27.196 43.797 40.703 96.286 44.204 152.782a457.43 457.43 0 0 1 0.072 55.506l-0.196 3.07c-0.521 7.721-1.188 14.411-1.727 18.554l-0.152 1.092h177.359l-0.075-0.35-0.168-1.355c-2.752-22.2-3.912-52.253-1.124-85.983 4.309-52.133 17.313-100.463 41.83-141.405l1.157-1.914a274.58 274.58 0 0 0 8.935-15.736h-9.385v-2.299h10.574c13.8-27.036 20.355-52.372 20.355-77.281-0.088-89.914-72.24-162.67-161.068-162.758z" p-id="3934"></path></svg>