<?xml version="1.0" standalone="no"?><!DOCTYPE svg PUBLIC "-//W3C//DTD SVG 1.1//EN" "http://www.w3.org/Graphics/SVG/1.1/DTD/svg11.dtd"><svg t="1635303755751" class="icon" viewBox="0 0 1024 1024" version="1.1" xmlns="http://www.w3.org/2000/svg" p-id="7799" xmlns:xlink="http://www.w3.org/1999/xlink" width="200" height="200"><defs><style type="text/css"></style></defs><path d="M514.24 986.72a82.72 82.72 0 0 1-42.56-12L128 779.44a83.76 83.76 0 0 1-42.16-73.36V318.48A83.28 83.28 0 0 1 128 245.44L472 49.52a80.8 80.8 0 0 1 84.16 0l344 195.28a83.84 83.84 0 0 1 42.16 73.36v387.92c0 33.2-17.44 62.64-43.52 74.08l-342.88 194.88a80.88 80.88 0 0 1-41.68 11.68z m0-896.64a30.4 30.4 0 0 0-15.44 4.4l-344.96 196a31.52 31.52 0 0 0-16 28v387.6a32 32 0 0 0 16 28.32l344 195.36a29.76 29.76 0 0 0 32 0l347.84-197.44c6.08-2.4 12.56-13.28 12.56-26.48V318.48a32 32 0 0 0-16-28.32L530.16 94.8a32 32 0 0 0-16.24-4.72z" p-id="7800"></path><path d="M510.48 529.04l-408-213.28a26.08 26.08 0 0 1 24-46.24l384 200.72 371.84-194.48a26.08 26.08 0 1 1 24 46.16z" p-id="7801"></path><path d="M509.2 974.16a26.08 26.08 0 0 1-26-26.08l1.2-448.48a26.08 26.08 0 0 1 26-26 26.08 26.08 0 0 1 26 26.08l-1.2 448.48a26.08 26.08 0 0 1-26 26zM395.04 622.88a26.16 26.16 0 0 1-12.24-3.04L212.56 529.28a26.08 26.08 0 1 1 24.48-46l170.24 90.56a26 26 0 0 1-12.24 49.04z" p-id="7802"></path></svg>