<?xml version="1.0" standalone="no"?><!DOCTYPE svg PUBLIC "-//W3C//DTD SVG 1.1//EN" "http://www.w3.org/Graphics/SVG/1.1/DTD/svg11.dtd"><svg t="1635304775146" class="icon" viewBox="0 0 1024 1024" version="1.1" xmlns="http://www.w3.org/2000/svg" p-id="9742" xmlns:xlink="http://www.w3.org/1999/xlink" width="200" height="200"><defs><style type="text/css"></style></defs><path d="M505.6 966.4C243.2 966.4 32 755.2 32 499.2 32 300.8 153.6 128 339.2 57.6c12.8-6.4 32-6.4 44.8 0 12.8 6.4 25.6 19.2 32 32 6.4 12.8 6.4 32 0 44.8-6.4 19.2-19.2 32-38.4 32-134.4 51.2-230.4 185.6-230.4 332.8 0 192 160 352 358.4 352 140.8 0 275.2-83.2 326.4-217.6 12.8-25.6 44.8-44.8 76.8-32 12.8 6.4 25.6 19.2 32 32 6.4 12.8 6.4 32 0 44.8-70.4 179.2-243.2 288-435.2 288z" p-id="9743"></path><path d="M492.8 512h486.4c0-262.4-217.6-473.6-486.4-486.4V512z" p-id="9744"></path></svg>
