<?xml version="1.0" standalone="no"?><!DOCTYPE svg PUBLIC "-//W3C//DTD SVG 1.1//EN" "http://www.w3.org/Graphics/SVG/1.1/DTD/svg11.dtd"><svg t="1635239569508" class="icon" viewBox="0 0 1024 1024" version="1.1" xmlns="http://www.w3.org/2000/svg" p-id="3064" xmlns:xlink="http://www.w3.org/1999/xlink" width="200" height="200"><defs><style type="text/css"></style></defs><path d="M896 0h-230.4-6.4c-64 0-115.2 57.6-108.8 121.6v236.8c0 64 51.2 121.6 121.6 121.6h230.4c70.4 0 121.6-57.6 121.6-128V121.6C1024 51.2 966.4 0 896 0z m57.6 121.6v230.4c0 32-25.6 57.6-57.6 57.6h-230.4c-32 0-57.6-25.6-57.6-57.6V121.6c0-32 25.6-57.6 57.6-57.6H915.2c25.6 6.4 44.8 32 38.4 57.6z m-172.8 416c-134.4 0-243.2 108.8-243.2 243.2 0 134.4 108.8 243.2 243.2 243.2s243.2-108.8 243.2-243.2c0-134.4-108.8-243.2-243.2-243.2z m0 428.8h-6.4c-96 0-172.8-83.2-172.8-179.2 0-96 83.2-179.2 179.2-179.2 96 0 179.2 83.2 179.2 179.2 0 102.4-83.2 179.2-179.2 179.2zM473.6 352V121.6C473.6 57.6 416 0 352 0H121.6C57.6 0 0 57.6 0 121.6v236.8c0 64 57.6 121.6 121.6 121.6H364.8c64-6.4 115.2-64 108.8-128z m-64-230.4v230.4c0 32-25.6 57.6-57.6 57.6H121.6c-32 0-57.6-25.6-57.6-57.6V121.6c0-32 25.6-57.6 57.6-57.6H371.2c25.6 6.4 44.8 32 38.4 57.6z m64 774.4v-230.4c0-64-51.2-121.6-121.6-121.6H121.6c-64 0-121.6 57.6-121.6 121.6v236.8c0 64 57.6 121.6 121.6 121.6H364.8c64-6.4 115.2-64 108.8-128z m-64-230.4V896c0 32-25.6 57.6-57.6 57.6H121.6c-32 0-57.6-25.6-57.6-57.6v-230.4c0-32 25.6-57.6 57.6-57.6H371.2c25.6 6.4 44.8 32 38.4 57.6z" p-id="3065"></path></svg>
