<?xml version="1.0" standalone="no"?><!DOCTYPE svg PUBLIC "-//W3C//DTD SVG 1.1//EN" "http://www.w3.org/Graphics/SVG/1.1/DTD/svg11.dtd"><svg t="1635301763716" class="icon" viewBox="0 0 1024 1024" version="1.1" xmlns="http://www.w3.org/2000/svg" p-id="6047" xmlns:xlink="http://www.w3.org/1999/xlink" width="200" height="200"><defs><style type="text/css"></style></defs><path d="M60.306001 761.236481S-1.8896 802.693986 13.343501 905.154903c16.208528 109.03477 141.967569 116.02346 141.967569 116.02346h82.877638l103.055143-259.938145z" p-id="6048"></path><path d="M820.974417 1024c-1.214612 0-2.186301 0-2.892645-0.04111l-625.618528-2.511443a37.372672 37.372672 0 0 1-37.223182-37.447418v-6.857885a37.036318 37.036318 0 0 1 26.81863-35.320912 116.647584 116.647584 0 0 0 57.66977-37.64923c32.667453-39.872904 41.442556-107.573499 25.376044-195.791691-12.093797-66.414975-39.719676-108.481655-68.967529-153.026143-35.687164-54.343602-76.135607-115.94124-88.431216-223.410096C86.653735 147.872451 226.801255 15.517133 232.777145 9.967292a37.372672 37.372672 0 0 1 25.413417-9.971029h693.890926a37.372672 37.372672 0 0 1 24.008204 66.030037c-1.266934 1.072596-132.811264 114.289368-125.034011 271.561046 5.605901 113.071019 42.933726 171.05472 82.474012 232.439333 39.091815 60.696957 79.517834 123.456885 79.517834 232.061869 0 74.304346-20.999704 131.925532-62.412362 171.230372-49.870093 47.336226-112.865469 50.68108-129.660748 50.68108z m-508.664489-93.057953a10.59889 10.59889 0 0 0 8.872272 16.290748l498.607503 2.003175 0.896945 0.048584c0.156965 0 45.968387 1.225824 79.080573-30.74276 25.574119-24.665963 38.538699-63.862422 38.5387-116.453246 0-86.614905-31.333248-135.259174-67.614638-191.587265-41.109939-63.828786-87.713661-136.174805-94.287514-269.225254-5.179852-104.725701 37.062479-191.292021 78.299485-249.851262a10.572729 10.572729 0 0 0-8.659249-16.664474h-554.984178a37.282978 37.282978 0 0 0-28.776958 13.517695c-33.295313 40.325113-92.497363 128.629262-80.306397 235.186225 10.277485 89.802793 42.515152 138.899273 76.647613 190.880922 32.062015 48.819921 65.211575 99.306664 80.026102 180.659496 18.122009 99.504739 9.253474 178.701168-26.340259 235.922467z" p-id="6049"></path></svg>