<?xml version="1.0" standalone="no"?><!DOCTYPE svg PUBLIC "-//W3C//DTD SVG 1.1//EN" "http://www.w3.org/Graphics/SVG/1.1/DTD/svg11.dtd"><svg t="1635241844065" class="icon" viewBox="0 0 1024 1024" version="1.1" xmlns="http://www.w3.org/2000/svg" p-id="3987" xmlns:xlink="http://www.w3.org/1999/xlink" width="200" height="200"><defs><style type="text/css"></style></defs><path d="M756.242342 575.231486C905.636494 564.808639 1023.999817 440.00875 1023.999817 287.999743c0-26.331405-3.803425-52.955381-11.227418-79.067358a31.9634 31.9634 0 0 0-53.394238-13.878845l-55.295951 55.295951c-34.815969 34.870826-95.542772 34.889112-130.377027 0a92.379346 92.379346 0 0 1 0-130.468455l55.222808-55.241094c8.045707-8.027421 11.209133-19.693697 8.338279-30.665115A31.926829 31.926829 0 0 0 815.122289 11.227419 289.956313 289.956313 0 0 0 736.000074 0C577.188788 0 448.000331 129.225027 448.000331 288.018029c0 15.122272 1.334856 30.573687 3.894854 46.134816l-37.86968 34.669683-182.875266-182.911837c16.969128-35.657111 10.825133-79.670786-18.651412-109.147331L145.11603 9.380563a31.981686 31.981686 0 0 0-45.238816 0l-90.514205 90.514205a31.981686 31.981686 0 0 0 0 45.238817l67.364511 67.382797A95.396486 95.396486 0 0 0 144.640602 240.639785a95.451343 95.451343 0 0 0 41.325678-9.43542l180.845552 180.845553L56.247538 696.22795A190.792973 190.792973 0 0 0 0.000731 832.017543c0 51.291383 19.986268 99.510768 56.246807 135.734736A190.610116 190.610116 0 0 0 192.00056 1023.999086c51.273097 0 99.492483-19.967982 136.722164-57.270806l218.38609-238.628359L805.485727 986.513405A127.177029 127.177029 0 0 0 895.999931 1023.999086a126.957601 126.957601 0 0 0 90.477634-37.485681A126.902744 126.902744 0 0 0 1023.999817 896.035771a127.085601 127.085601 0 0 0-37.522252-90.514205l-230.216937-230.29008zM167.260011 167.259279c-12.123418 12.086846-33.115399 12.086846-45.257103 0L77.257805 122.514176l45.238817-45.257102 44.763389 44.745103c12.470846 12.507417 12.470846 32.731399 0 45.257102z m115.236468 755.199326c-48.3291 48.365671-132.589596 48.420528-180.991838 0A126.994172 126.994172 0 0 1 64.000674 831.999257c0-34.194255 13.311988-66.340512 36.461682-89.545063l407.880779-373.211095c0.292571-0.274285 0.512-0.621714 0.80457-0.914285 0.786285-0.767999 1.499427-1.609141 2.194284-2.468569 0.676571-0.786285 1.31657-1.590856 1.901713-2.413712 0.548571-0.859428 1.023999-1.737141 1.499427-2.633141 0.512-0.914285 1.023999-1.82857 1.426284-2.815997 0.402285-0.950856 0.713142-1.919998 1.005714-2.889141 0.292571-0.987428 0.603428-1.919998 0.804571-2.925711 0.219428-1.023999 0.329143-2.08457 0.438856-3.163426 0.128-0.987428 0.219428-1.974855 0.219429-2.980569 0.018286-1.023999-0.073143-2.047998-0.146286-3.071997a40.557678 40.557678 0 0 0-0.420571-3.291426c-0.073143-0.402285-0.054857-0.804571-0.146286-1.206856A226.029512 226.029512 0 0 1 512.000274 287.999743C512.000274 163.510711 614.765897 63.414801 739.0355 64.018229l-10.62399 10.62399c-60.854803 60.927946-60.854803 160.036429 0 220.891231a155.172433 155.172433 0 0 0 110.482187 45.842245c41.78282 0 81.005642-16.274271 110.482187-45.805673l10.605705-10.587419 0.018285 3.01714C959.999874 411.537918 859.519964 511.999543 736.01836 511.999543a222.134659 222.134659 0 0 1-50.377098-5.906281c-0.420571-0.109714-0.841142-0.073143-1.279999-0.164571a33.572541 33.572541 0 0 0-3.346282-0.420571c-0.950856-0.073143-1.901713-0.146286-2.834284-0.146286a31.817114 31.817114 0 0 0-3.437711 0.256c-0.877714 0.109714-1.773713 0.182857-2.651426 0.365714a29.641116 29.641116 0 0 0-3.455997 0.969142c-0.804571 0.256-1.609141 0.493714-2.377141 0.822857-1.115428 0.438857-2.157712 1.005713-3.218283 1.590855-0.786285 0.438857-1.554284 0.859428-2.303998 1.353142-0.895999 0.585142-1.737141 1.279999-2.559997 1.95657a31.085687 31.085687 0 0 0-2.431998 2.157712c-0.292571 0.292571-0.639999 0.512-0.932571 0.822856L282.514765 922.476891z m658.742269 18.779412c-24.191978 24.191978-66.322226 24.191978-90.514205 0L602.203622 692.662239l90.49592-90.49592 248.557492 248.575779a63.634229 63.634229 0 0 1 18.74284 45.293673 63.433086 63.433086 0 0 1-18.74284 45.202246z m-801.443856-112.274186l103.442194-103.442193 51.711954 51.730239-103.423908 103.442194-51.73024-51.73024z" p-id="3988"></path></svg>