<?xml version="1.0" standalone="no"?><!DOCTYPE svg PUBLIC "-//W3C//DTD SVG 1.1//EN" "http://www.w3.org/Graphics/SVG/1.1/DTD/svg11.dtd"><svg t="1635303004701" class="icon" viewBox="0 0 1024 1024" version="1.1" xmlns="http://www.w3.org/2000/svg" p-id="6929" xmlns:xlink="http://www.w3.org/1999/xlink" width="200" height="200"><defs><style type="text/css"></style></defs><path d="M107.789474 339.806316a599.309474 599.309474 0 0 1 404.210526 155.378526A599.309474 599.309474 0 0 1 916.210526 339.806316v481.441684a601.411368 601.411368 0 0 0-404.210526 155.378526A598.932211 598.932211 0 0 0 107.789474 821.248V339.806316z m718.578526 399.629473V435.361684a507.095579 507.095579 0 0 0-253.305263 123.742316L512 614.669474l-61.062737-56.050527a507.095579 507.095579 0 0 0-253.305263-123.79621v304.128a692.709053 692.709053 0 0 1 314.368 123.957895 694.002526 694.002526 0 0 1 314.368-123.472843zM512 0A189.170526 189.170526 0 0 1 700.631579 188.631579 189.170526 189.170526 0 0 1 512 377.263158 189.170526 189.170526 0 0 1 323.368421 188.631579 189.170526 189.170526 0 0 1 512 0z m0 107.789474C467.536842 107.789474 431.157895 144.168421 431.157895 188.631579S467.536842 269.473684 512 269.473684 592.842105 233.094737 592.842105 188.631579 556.463158 107.789474 512 107.789474z" p-id="6930"></path></svg>