<?xml version="1.0" standalone="no"?><!DOCTYPE svg PUBLIC "-//W3C//DTD SVG 1.1//EN" "http://www.w3.org/Graphics/SVG/1.1/DTD/svg11.dtd"><svg t="1635302899227" class="icon" viewBox="0 0 1280 1024" version="1.1" xmlns="http://www.w3.org/2000/svg" p-id="6756" xmlns:xlink="http://www.w3.org/1999/xlink" width="250" height="200"><defs><style type="text/css"></style></defs><path d="M168.756053 966.997333c0 14.933333-5.973333 29.653333-16.298666 40.32-10.282667 10.538667-24.746667 16.682667-39.338667 16.682667a55.893333 55.893333 0 0 1-39.381333-16.64 58.666667 58.666667 0 0 1-16.298667-40.362667c0-14.933333 5.973333-29.653333 16.298667-40.32 10.410667-10.581333 24.746667-16.682667 39.381333-16.682666 14.592 0 28.928 6.101333 39.338667 16.64 10.282667 10.709333 16.298667 25.386667 16.298666 40.362666z m471.125334-396.544L183.77472 331.776l456.106667-212.138667 456.106666 212.138667-456.106666 238.677333z m292.138666 156.074667c-27.818667 35.157333-121.984 146.517333-299.093333 146.517333-172.544 0-271.317333-110.933333-299.136-147.114666v-187.861334l281.002667 147.2c7.936 4.138667 16.512 6.229333 25.173333 6.229334 8.704 0 17.92-2.090667 25.856-6.272l266.24-139.050667v180.352zM662.87872 5.12a54.357333 54.357333 0 0 0-45.994667 0L32.649387 276.821333A57.045333 57.045333 0 0 0 0.009387 327.424c-0.469333 21.888 13.824 42.112 32.853333 52.053333l50.517333 25.173334V843.093333c0 19.669333 15.530667 35.626667 34.773334 35.626667 19.2 0 34.773333-15.957333 34.773333-35.626667v-402.090666l83.456 46.08v255.061333c0 9.685333 2.56 19.157333 7.68 27.306667 5.290667 8.277333 132.266667 203.349333 388.138667 203.349333 263.125333 0 384.426667-196.138667 389.461333-204.501333 4.693333-7.850667 7.765333-16.896 7.765333-26.154667v-246.912l220.544-115.712c19.029333-9.984 30.506667-30.208 30.037334-52.053333a57.344 57.344 0 0 0-32.938667-50.645334L662.87872 5.12z" p-id="6757"></path></svg>