<?xml version="1.0" standalone="no"?><!DOCTYPE svg PUBLIC "-//W3C//DTD SVG 1.1//EN" "http://www.w3.org/Graphics/SVG/1.1/DTD/svg11.dtd"><svg t="1635301977531" class="icon" viewBox="0 0 1024 1024" version="1.1" xmlns="http://www.w3.org/2000/svg" p-id="6222" xmlns:xlink="http://www.w3.org/1999/xlink" width="200" height="200"><defs><style type="text/css"></style></defs><path d="M928 697.99V230.72c0-37.57-30.57-68.14-68.14-68.14H538.6v-29.2c0-16.12-13.08-29.2-29.2-29.2-16.12 0-29.2 13.08-29.2 29.2v29.2H158.94c-37.57 0-68.14 30.57-68.14 68.14V698c0 37.57 30.57 68.14 68.14 68.14h85.26l-105.91 105.9c-11.41 11.41-11.41 29.89 0 41.3 5.7 5.7 13.18 8.56 20.65 8.56s14.94-2.85 20.65-8.56l147.2-147.2h404.15l147.2 147.2c5.7 5.7 13.18 8.56 20.65 8.56s14.94-2.85 20.65-8.56c11.41-11.41 11.41-29.89 0-41.3l-105.91-105.9h46.32c37.57 0 68.15-30.58 68.15-68.15z m-778.8 0V230.72c0-5.29 4.45-9.73 9.73-9.73h700.91c5.29 0 9.73 4.45 9.73 9.73V698c0 5.29-4.45 9.73-9.73 9.73h-700.9c-5.29 0-9.74-4.45-9.74-9.74z" p-id="6223"></path><path d="M275.76 415.68H509.4c16.12 0 29.2-13.08 29.2-29.2 0-16.12-13.08-29.2-29.2-29.2H275.76c-16.12 0-29.2 13.08-29.2 29.2-0.01 16.12 13.07 29.2 29.2 29.2zM694.36 542.23c0-16.12-13.08-29.2-29.2-29.2h-389.4c-16.12 0-29.2 13.08-29.2 29.2 0 16.12 13.08 29.2 29.2 29.2h389.4c16.12 0.01 29.2-13.07 29.2-29.2z" p-id="6224"></path></svg>
