<?xml version="1.0" standalone="no"?><!DOCTYPE svg PUBLIC "-//W3C//DTD SVG 1.1//EN" "http://www.w3.org/Graphics/SVG/1.1/DTD/svg11.dtd"><svg t="1635300174731" class="icon" viewBox="0 0 1024 1024" version="1.1" xmlns="http://www.w3.org/2000/svg" p-id="4645" xmlns:xlink="http://www.w3.org/1999/xlink" width="200" height="200"><defs><style type="text/css"></style></defs><path d="M736.64 522.24a32.64 32.64 0 0 0-28.8-31.36c-16.64 0-35.84 7.68-37.76 21.12l-73.6 260.48-15.36-25.6a371.2 371.2 0 0 0-128-128l-17.92-8.96 12.8-12.16a202.88 202.88 0 0 0 72.32-154.24 208 208 0 0 0-416 0 203.52 203.52 0 0 0 71.68 154.24l16 12.16-16 8.96A337.92 337.92 0 0 0 0 887.04a34.56 34.56 0 0 0 34.56 34.56 35.2 35.2 0 0 0 35.2-34.56 269.44 269.44 0 0 1 242.56-238.72 272.64 272.64 0 0 1 242.56 238.72 27.52 27.52 0 0 0 6.4 17.28 34.56 34.56 0 0 0 28.8 25.6h6.4a35.2 35.2 0 0 0 30.72-22.4z m-424.32 57.6a136.32 136.32 0 1 1 138.88-136.32 137.6 137.6 0 0 1-138.88 136.32zM855.68 203.52H550.4a30.08 30.08 0 0 0-28.16 31.36 30.72 30.72 0 0 0 28.16 32h305.28a30.72 30.72 0 0 0 28.8-32 30.08 30.08 0 0 0-28.8-31.36zM855.68 355.2H704a32 32 0 0 0 0 64h152.96a32 32 0 0 0 0-64z" p-id="4646"></path><path d="M1024 216.32A177.92 177.92 0 0 0 850.56 33.92H225.92A178.56 178.56 0 0 0 51.84 216.32v56.32a35.2 35.2 0 0 0 35.2 34.56 34.56 34.56 0 0 0 34.56-34.56v-56.32A109.44 109.44 0 0 1 225.92 102.4h624.64a109.44 109.44 0 0 1 104.32 113.92v591.36a108.8 108.8 0 0 1-104.32 113.28h-138.88a34.56 34.56 0 1 0 0 68.48h138.88A177.92 177.92 0 0 0 1024 808.32z" p-id="4647"></path></svg>