<?xml version="1.0" standalone="no"?><!DOCTYPE svg PUBLIC "-//W3C//DTD SVG 1.1//EN" "http://www.w3.org/Graphics/SVG/1.1/DTD/svg11.dtd"><svg t="1635301166809" class="icon" viewBox="0 0 1024 1024" version="1.1" xmlns="http://www.w3.org/2000/svg" p-id="5523" xmlns:xlink="http://www.w3.org/1999/xlink" width="200" height="200"><defs><style type="text/css"></style></defs><path d="M564.7 513.9c51.5-36.5 85.3-96.4 85.3-164.2 0-111-90.3-201.2-201.2-201.2s-201.2 90.3-201.2 201.2c0 67.8 33.8 127.7 85.3 164.2C196.2 561.9 98 692.2 98 845c0 14.7 12 26.7 26.7 26.7h648.2c14.7 0 26.7-12 26.7-26.7 0-152.8-98.3-283.1-234.9-331.1zM301 349.8c0-81.5 66.3-147.8 147.8-147.8s147.8 66.3 147.8 147.8c0 72.8-52.9 133.3-122.3 145.4-8.4-0.6-16.9-1-25.5-1-8.6 0-17.1 0.4-25.5 1C353.9 483 301 422.5 301 349.8zM152.6 818.3C165.3 675.8 279 562 421.4 548.9c9 1.2 18.1 2.1 27.4 2.1 9.3 0 18.4-0.9 27.4-2.1C618.6 562 732.2 675.8 745 818.3H152.6z" p-id="5524"></path><path d="M744.5 477.5c33.2-33.3 52.6-78.8 52.6-126.8 0-73-43.6-138.1-111.1-165.9-13.6-5.6-29.3 0.9-34.9 14.5-5.6 13.6 0.9 29.2 14.5 34.9 47.4 19.5 78 65.3 78 116.5 0 44.8-24.1 86.6-63 109.1-9.2 5.3-13.9 15.3-13.2 25.2-1.2 12.6 6.7 24.6 19.4 28.1 110.5 30.8 187.7 132.6 187.7 247.4 0 14.7 12 26.7 26.7 26.7s26.7-12 26.7-26.7c0.1-123.2-73.5-233.7-183.4-283z" p-id="5525"></path></svg>