<?xml version="1.0" standalone="no"?><!DOCTYPE svg PUBLIC "-//W3C//DTD SVG 1.1//EN" "http://www.w3.org/Graphics/SVG/1.1/DTD/svg11.dtd"><svg t="1635301365867" class="icon" viewBox="0 0 1024 1024" version="1.1" xmlns="http://www.w3.org/2000/svg" p-id="5870" xmlns:xlink="http://www.w3.org/1999/xlink" width="200" height="200"><defs><style type="text/css"></style></defs><path d="M214.385 147.694c0 43.446 35.22 78.666 78.666 78.666s78.666-35.22 78.666-78.666c0-43.446-35.22-78.666-78.666-78.666-43.446 0-78.666 35.22-78.666 78.666z" p-id="5871"></path><path d="M419.635 148.269c0 32.439 26.297 58.737 58.737 58.737 32.439 0 58.737-26.297 58.737-58.737 0 0 0 0 0 0 0-32.439-26.297-58.737-58.737-58.737-32.439 0-58.737 26.297-58.737 58.737 0 0 0 0 0 0z" p-id="5872"></path><path d="M606.944 165.802c0 25.489 20.663 46.151 46.151 46.151s46.151-20.663 46.151-46.151c0-25.489-20.663-46.151-46.151-46.151-25.489 0-46.151 20.663-46.151 46.151z" p-id="5873"></path><path d="M723.916 244.062c0 0 0 0 0 0 0 20.275 16.436 36.711 36.711 36.711 20.275 0 36.711-16.436 36.711-36.711 0 0 0 0 0 0 0 0 0 0 0 0 0-20.275-16.436-36.711-36.711-36.711-20.275 0-36.711 16.436-36.711 36.711 0 0 0 0 0 0z" p-id="5874"></path><path d="M609.248 250.832c-28.739-3.347-70.012-8.062-121.374-8.062-37.369 0.001-80.081 2.496-127.182 9.83-108.766 16.936-158.772 161.631-78.524 237.499 71.659 67.748 81.279 149.641 34.179 256.319-47.1 106.679 29.896 178.362 29.896 178.362 8.473 6.543 41.468 38.736 92.911 38.736 37.267 0 84.218-16.902 138.528-72.696 171.232-174.763 192.731-344.432 194.54-463.94s-110.893-169.981-162.974-176.049zM700.599 425.797c-0.749 49.447-4.825 115.641-29.912 189.216-12.725 37.32-30.081 73.922-51.59 108.789-24.749 40.122-55.897 79.448-92.581 116.888-0.055 0.055-0.109 0.112-0.164 0.168-19.424 19.954-38.092 34.333-55.484 42.733-11.392 5.503-22.064 8.294-31.715 8.294-20.425 0-35.653-12.686-43.833-19.501-0.305-0.254-0.611-0.509-0.919-0.765-2.2-2.552-9.516-11.568-14.903-24.172-9.75-22.807-8.972-46.391 2.378-72.097 29.334-66.439 40.114-125.61 32.955-180.89-7.59-58.612-35.667-111.236-83.452-156.413-8.078-7.637-13.356-17.039-15.688-27.946-2.423-11.331-1.672-23.855 2.174-36.222 6.653-21.395 24.292-45.898 53.849-50.5 38.255-5.956 77.337-8.975 116.164-8.976h0.002c48.004 0 87.167 4.562 113.081 7.581 13.298 1.549 41.45 10.73 64.508 29.677 24.094 19.799 35.585 44.049 35.13 74.138z" p-id="5875"></path></svg>