<?xml version="1.0" standalone="no"?><!DOCTYPE svg PUBLIC "-//W3C//DTD SVG 1.1//EN" "http://www.w3.org/Graphics/SVG/1.1/DTD/svg11.dtd"><svg t="1635301266671" class="icon" viewBox="0 0 1024 1024" version="1.1" xmlns="http://www.w3.org/2000/svg" p-id="5697" xmlns:xlink="http://www.w3.org/1999/xlink" width="200" height="200"><defs><style type="text/css"></style></defs><path d="M634.24 550.4a48 48 0 0 1 6.464 95.488l-6.528 0.448H333.504a125.312 125.312 0 0 0-9.344 250.304l9.344 0.384h178.56a48 48 0 0 1 6.592 95.552l-6.528 0.448h-178.56a221.312 221.312 0 0 1-12.16-442.368l12.16-0.32h300.608z m62.464 415.424a34.688 34.688 0 0 1-53.696-30.976l2.816-46.848 182.016-315.264a52.032 52.032 0 0 1 93.184 45.696l-3.136 6.336-182.016 315.2zM590.08 43.648a225.28 225.28 0 1 1 0 450.688 225.28 225.28 0 0 1 0-450.688z m0 96a129.28 129.28 0 1 0 0 258.688 129.28 129.28 0 0 0 0-258.688z" p-id="5698"></path></svg>
